<svg xmlns="http://www.w3.org/2000/svg" viewBox="0 0 24 24" fill="none" stroke="currentColor" stroke-width="2" stroke-linecap="round" stroke-linejoin="round" class="feather feather-send">
  <path fill="#229ED9" d="M22.05 1.577c-.393-.016-.784.08-1.117.235-.484.186-4.92 1.902-9.41 3.64-2.26.873-4.518 1.746-6.256 2.415-1.737.67-3.045 1.168-3.114 1.192-.46.16-1.082.362-1.61.984-.133.155-.267.354-.335.628s-.038.622.095.895c.265.547.714.773 1.244.976 1.76.564 3.58 1.102 5.087 1.608.556 1.96 1.09 3.927 1.618 5.89.174.394.553.54.944.544l-.002.02s.307.03.472-.093c.315-.212.426-.53.402-.812-.007-.28.614-5.548.62-5.628a.47.47 0 0 1 .116-.262c.18-.168.462-.343.92-.256.46.087 10.955 4.334 11.925 4.687l.108.043c.367.186.696.316.957.316.235 0 .38-.09.486-.304.091-.18.15-.44.122-.722-.074-.741-.444-1.205-1.277-1.976-.926-.857-2.288-1.896-3.63-2.92a1.3 1.3 0 0 1-.326-.543c-.075-.301-.018-.646.166-.888l.03-.048a1.19 1.19 0 0 1 .27-.218l.005-.003c1.457-1.097 5.312-4.002 5.69-4.272.306-.22.749-.573.616-1.144-.114-.495-.632-.79-1.146-.884z"/>
</svg> 